ffmpeg started on 2025-05-02 at 17:34:27
Report written to "D:\Convert\FFMetrics\reports\ssim_report-6.txt"
Log level: 32
Command line:
ffmpeg -hide_banner -nostdin -i "G:\\\xc0\xed\xe8\xec\xe5\\\xce\xed\xe3\xee\xe8\xed\xe3\xe8\\!_35_\xcb\xe5\xf2\xee_2024\\JamClub\\\xcf\xf1\xe5\xe2\xe4\xee\xe3\xe0\xf0\xe5\xec\\JamClub_Giji_Harem_01_1080p_HEVC.mkv" -i "G:\\\xc0\xed\xe8\xec\xe5\\\xce\xed\xe3\xee\xe8\xed\xe3\xe8\\!_35_\xcb\xe5\xf2\xee_2024\\JamClub\\\xcf\xf1\xe5\xe2\xe4\xee\xe3\xe0\xf0\xe5\xec\\JamClub_Giji_Harem_01_1080p.mp4" -lavfi "[0:v]settb=AVTB,setpts=PTS-STARTPTS,format=pix_fmts=yuv420p10,fps=24000/1001,scale=1920:1080:flags=bicubic[main];[1:v]settb=AVTB,setpts=PTS-STARTPTS,format=pix_fmts=yuv420p,fps=24000/1001,scale=1920:1080:flags=bicubic[ref];[main][ref]ssim=eof_action=endall:stats_file='D\\:/Convert/FFMetrics/logs/ssim_logfile-6.txt'" -f null -
Input #0, matroska,webm, from 'G:\Аниме\Онгоинги\!_35_Лето_2024\JamClub\Псевдогарем\JamClub_Giji_Harem_01_1080p_HEVC.mkv':
  Metadata:
    COMPATIBLE_BRANDS: isomiso2avc1mp41
    MAJOR_BRAND     : isom
    MINOR_VERSION   : 512
    ENCODER         : Lavf61.7.100
  Duration: 00:24:15.36, start: -0.001000, bitrate: 1094 kb/s
  Stream #0:0: Video: hevc (Main 10), yuv420p10le(tv, bt709, progressive), 1920x1080 [SAR 1:1 DAR 16:9], 23.98 fps, 23.98 tbr, 1k tbn (default)
      Metadata:
        HANDLER_NAME    : VideoHandler
        VENDOR_ID       : [0][0][0][0]
        ENCODER         : Lavc61.19.100 libx265
        BPS             : 897249
        DURATION        : 00:24:13.201708333
        NUMBER_OF_FRAMES: 34842
        NUMBER_OF_BYTES : 162985471
        _STATISTICS_WRITING_APP: mkvpropedit v66.0.0 ('Josie') 64-bit
        _STATISTICS_WRITING_DATE_UTC: 2025-05-02 11:50:14
        _STATISTICS_TAGS: BPS DURATION NUMBER_OF_FRAMES NUMBER_OF_BYTES
  Stream #0:1(eng): Audio: aac (LC), 48000 Hz, stereo, fltp (default)
      Metadata:
        HANDLER_NAME    : SoundHandler
        VENDOR_ID       : [0][0][0][0]
        ENCODER         : Lavc61.19.100 aac
        BPS             : 194962
        DURATION        : 00:24:15.320000000
        NUMBER_OF_FRAMES: 68219
        NUMBER_OF_BYTES : 35466517
        _STATISTICS_WRITING_APP: mkvpropedit v66.0.0 ('Josie') 64-bit
        _STATISTICS_WRITING_DATE_UTC: 2025-05-02 11:50:14
        _STATISTICS_TAGS: BPS DURATION NUMBER_OF_FRAMES NUMBER_OF_BYTES
Input #1, mov,mp4,m4a,3gp,3g2,mj2, from 'G:\Аниме\Онгоинги\!_35_Лето_2024\JamClub\Псевдогарем\JamClub_Giji_Harem_01_1080p.mp4':
  Metadata:
    major_brand     : isom
    minor_version   : 512
    compatible_brands: isomiso2avc1mp41
    encoder         : Lavf60.16.100
  Duration: 00:24:15.34, start: 0.000000, bitrate: 5236 kb/s
  Stream #1:0[0x1](und): Video: h264 (High) (avc1 / 0x31637661), yuv420p(progressive), 1920x1080 [SAR 1:1 DAR 16:9], 5045 kb/s, 23.98 fps, 23.98 tbr, 90k tbn (default)
      Metadata:
        handler_name    : VideoHandler
        vendor_id       : [0][0][0][0]
  Stream #1:1[0x2](eng): Audio: aac (LC) (mp4a / 0x6134706D), 48000 Hz, stereo, fltp, 191 kb/s (default)
      Metadata:
        handler_name    : SoundHandler
        vendor_id       : [0][0][0][0]
Stream mapping:
  Stream #0:0 (hevc) -> settb:default
  Stream #1:0 (h264) -> settb:default
  ssim:default -> Stream #0:0 (wrapped_avframe)
  Stream #0:1 -> #0:1 (aac (native) -> pcm_s16le (native))
Output #0, null, to 'pipe:':
  Metadata:
    COMPATIBLE_BRANDS: isomiso2avc1mp41
    MAJOR_BRAND     : isom
    MINOR_VERSION   : 512
    encoder         : Lavf61.7.100
  Stream #0:0: Video: wrapped_avframe, yuv420p10le(tv, bt709, progressive), 1920x1080 [SAR 1:1 DAR 16:9], q=2-31, 200 kb/s, 23.98 fps, 23.98 tbn
      Metadata:
        encoder         : Lavc61.19.100 wrapped_avframe
  Stream #0:1(eng): Audio: pcm_s16le, 48000 Hz, stereo, s16, 1536 kb/s (default)
      Metadata:
        HANDLER_NAME    : SoundHandler
        VENDOR_ID       : [0][0][0][0]
        _STATISTICS_TAGS: BPS DURATION NUMBER_OF_FRAMES NUMBER_OF_BYTES
        BPS             : 194962
        DURATION        : 00:24:15.320000000
        NUMBER_OF_FRAMES: 68219
        NUMBER_OF_BYTES : 35466517
        _STATISTICS_WRITING_APP: mkvpropedit v66.0.0 ('Josie') 64-bit
        _STATISTICS_WRITING_DATE_UTC: 2025-05-02 11:50:14
        encoder         : Lavc61.19.100 pcm_s16le
frame=  114 fps=0.0 q=-0.0 size=N/A time=00:00:04.75 bitrate=N/A speed=9.14x    frame=  274 fps=266 q=-0.0 size=N/A time=00:00:11.42 bitrate=N/A speed=11.1x    frame=  473 fps=305 q=-0.0 size=N/A time=00:00:19.72 bitrate=N/A speed=12.7x    frame=  674 fps=325 q=-0.0 size=N/A time=00:00:28.11 bitrate=N/A speed=13.6x    frame=  893 fps=346 q=-0.0 size=N/A time=00:00:37.24 bitrate=N/A speed=14.4x    frame= 1134 fps=367 q=-0.0 size=N/A time=00:00:47.29 bitrate=N/A speed=15.3x    frame= 1388 fps=383 q=-0.0 size=N/A time=00:00:57.89 bitrate=N/A speed=  16x    frame= 1653 fps=399 q=-0.0 size=N/A time=00:01:08.94 bitrate=N/A speed=16.7x    frame= 1929 fps=413 q=-0.0 size=N/A time=00:01:20.45 bitrate=N/A speed=17.2x    frame= 2187 fps=423 q=-0.0 size=N/A time=00:01:31.21 bitrate=N/A speed=17.6x    frame= 2469 fps=433 q=-0.0 size=N/A time=00:01:42.97 bitrate=N/A speed=18.1x    frame= 2703 fps=435 q=-0.0 size=N/A time=00:01:52.73 bitrate=N/A speed=18.2x    frame= 2950 fps=439 q=-0.0 size=N/A time=00:02:03.03 bitrate=N/A speed=18.3x    frame= 3217 fps=444 q=-0.0 size=N/A time=00:02:14.17 bitrate=N/A speed=18.5x    frame= 3469 fps=447 q=-0.0 size=N/A time=00:02:24.68 bitrate=N/A speed=18.7x    frame= 3716 fps=449 q=-0.0 size=N/A time=00:02:34.98 bitrate=N/A speed=18.7x    frame= 3967 fps=452 q=-0.0 size=N/A time=00:02:45.45 bitrate=N/A speed=18.8x    frame= 4238 fps=455 q=-0.0 size=N/A time=00:02:56.75 bitrate=N/A speed=  19x    frame= 4518 fps=460 q=-0.0 size=N/A time=00:03:08.43 bitrate=N/A speed=19.2x    frame= 4772 fps=462 q=-0.0 size=N/A time=00:03:19.03 bitrate=N/A speed=19.3x    frame= 5028 fps=463 q=-0.0 size=N/A time=00:03:29.70 bitrate=N/A speed=19.3x    frame= 5284 fps=465 q=-0.0 size=N/A time=00:03:40.38 bitrate=N/A speed=19.4x    frame= 5529 fps=465 q=-0.0 size=N/A time=00:03:50.60 bitrate=N/A speed=19.4x    frame= 5747 fps=464 q=-0.0 size=N/A time=00:03:59.69 bitrate=N/A speed=19.3x    frame= 5993 fps=464 q=-0.0 size=N/A time=00:04:09.95 bitrate=N/A speed=19.3x    frame= 6262 fps=466 q=-0.0 size=N/A time=00:04:21.17 bitrate=N/A speed=19.4x    frame= 6484 fps=465 q=-0.0 size=N/A time=00:04:30.43 bitrate=N/A speed=19.4x    frame= 6713 fps=464 q=-0.0 size=N/A time=00:04:39.98 bitrate=N/A speed=19.4x    frame= 6902 fps=461 q=-0.0 size=N/A time=00:04:47.87 bitrate=N/A speed=19.2x    frame= 7079 fps=457 q=-0.0 size=N/A time=00:04:55.25 bitrate=N/A speed=19.1x    frame= 7291 fps=456 q=-0.0 size=N/A time=00:05:04.09 bitrate=N/A speed=  19x    frame= 7475 fps=452 q=-0.0 size=N/A time=00:05:11.76 bitrate=N/A speed=18.9x    frame= 7690 fps=451 q=-0.0 size=N/A time=00:05:20.73 bitrate=N/A speed=18.8x    frame= 7899 fps=450 q=-0.0 size=N/A time=00:05:29.45 bitrate=N/A speed=18.8x    frame= 8147 fps=451 q=-0.0 size=N/A time=00:05:39.79 bitrate=N/A speed=18.8x    frame= 8380 fps=451 q=-0.0 size=N/A time=00:05:49.51 bitrate=N/A speed=18.8x    frame= 8623 fps=451 q=-0.0 size=N/A time=00:05:59.65 bitrate=N/A speed=18.8x    frame= 8845 fps=451 q=-0.0 size=N/A time=00:06:08.91 bitrate=N/A speed=18.8x    frame= 9082 fps=451 q=-0.0 size=N/A time=00:06:18.79 bitrate=N/A speed=18.8x    frame= 9325 fps=452 q=-0.0 size=N/A time=00:06:28.93 bitrate=N/A speed=18.8x    frame= 9557 fps=452 q=-0.0 size=N/A time=00:06:38.60 bitrate=N/A speed=18.8x    frame= 9806 fps=452 q=-0.0 size=N/A time=00:06:48.99 bitrate=N/A speed=18.9x    frame=10028 fps=452 q=-0.0 size=N/A time=00:06:58.25 bitrate=N/A speed=18.9x    frame=10279 fps=453 q=-0.0 size=N/A time=00:07:08.71 bitrate=N/A speed=18.9x    frame=10519 fps=453 q=-0.0 size=N/A time=00:07:18.72 bitrate=N/A speed=18.9x    frame=10775 fps=454 q=-0.0 size=N/A time=00:07:29.40 bitrate=N/A speed=18.9x    frame=11015 fps=454 q=-0.0 size=N/A time=00:07:39.41 bitrate=N/A speed=18.9x    frame=11264 fps=455 q=-0.0 size=N/A time=00:07:49.80 bitrate=N/A speed=  19x    frame=11539 fps=456 q=-0.0 size=N/A time=00:08:01.27 bitrate=N/A speed=  19x    frame=11806 fps=458 q=-0.0 size=N/A time=00:08:12.40 bitrate=N/A speed=19.1x    frame=12064 fps=458 q=-0.0 size=N/A time=00:08:23.16 bitrate=N/A speed=19.1x    frame=12340 fps=460 q=-0.0 size=N/A time=00:08:34.68 bitrate=N/A speed=19.2x    frame=12589 fps=460 q=-0.0 size=N/A time=00:08:45.06 bitrate=N/A speed=19.2x    frame=12844 fps=461 q=-0.0 size=N/A time=00:08:55.70 bitrate=N/A speed=19.2x    frame=13090 fps=461 q=-0.0 size=N/A time=00:09:05.96 bitrate=N/A speed=19.2x    frame=13348 fps=462 q=-0.0 size=N/A time=00:09:16.72 bitrate=N/A speed=19.3x    frame=13614 fps=463 q=-0.0 size=N/A time=00:09:27.81 bitrate=N/A speed=19.3x    frame=13829 fps=462 q=-0.0 size=N/A time=00:09:36.78 bitrate=N/A speed=19.3x    frame=14086 fps=463 q=-0.0 size=N/A time=00:09:47.50 bitrate=N/A speed=19.3x    frame=14334 fps=463 q=-0.0 size=N/A time=00:09:57.84 bitrate=N/A speed=19.3x    frame=14606 fps=464 q=-0.0 size=N/A time=00:10:09.19 bitrate=N/A speed=19.4x    frame=14828 fps=463 q=-0.0 size=N/A time=00:10:18.45 bitrate=N/A speed=19.3x    frame=15040 fps=463 q=-0.0 size=N/A time=00:10:27.29 bitrate=N/A speed=19.3x    frame=15289 fps=463 q=-0.0 size=N/A time=00:10:37.67 bitrate=N/A speed=19.3x    frame=15559 fps=464 q=-0.0 size=N/A time=00:10:48.93 bitrate=N/A speed=19.3x    frame=15807 fps=464 q=-0.0 size=N/A time=00:10:59.28 bitrate=N/A speed=19.4x    frame=16061 fps=465 q=-0.0 size=N/A time=00:11:09.87 bitrate=N/A speed=19.4x    frame=16271 fps=464 q=-0.0 size=N/A time=00:11:18.63 bitrate=N/A speed=19.3x    frame=16537 fps=464 q=-0.0 size=N/A time=00:11:29.73 bitrate=N/A speed=19.4x    frame=16789 fps=465 q=-0.0 size=N/A time=00:11:40.24 bitrate=N/A speed=19.4x    frame=17029 fps=465 q=-0.0 size=N/A time=00:11:50.25 bitrate=N/A speed=19.4x    frame=17295 fps=466 q=-0.0 size=N/A time=00:12:01.34 bitrate=N/A speed=19.4x    frame=17496 fps=465 q=-0.0 size=N/A time=00:12:09.72 bitrate=N/A speed=19.4x    frame=17758 fps=465 q=-0.0 size=N/A time=00:12:20.65 bitrate=N/A speed=19.4x    frame=18016 fps=466 q=-0.0 size=N/A time=00:12:31.41 bitrate=N/A speed=19.4x    frame=18270 fps=466 q=-0.0 size=N/A time=00:12:42.01 bitrate=N/A speed=19.4x    frame=18537 fps=467 q=-0.0 size=N/A time=00:12:53.14 bitrate=N/A speed=19.5x    frame=18792 fps=467 q=-0.0 size=N/A time=00:13:03.78 bitrate=N/A speed=19.5x    frame=19046 fps=467 q=-0.0 size=N/A time=00:13:14.37 bitrate=N/A speed=19.5x    frame=19327 fps=468 q=-0.0 size=N/A time=00:13:26.09 bitrate=N/A speed=19.5x    frame=19573 fps=468 q=-0.0 size=N/A time=00:13:36.35 bitrate=N/A speed=19.5x    frame=19831 fps=469 q=-0.0 size=N/A time=00:13:47.11 bitrate=N/A speed=19.5x    frame=20082 fps=469 q=-0.0 size=N/A time=00:13:57.58 bitrate=N/A speed=19.6x    frame=20337 fps=469 q=-0.0 size=N/A time=00:14:08.22 bitrate=N/A speed=19.6x    frame=20583 fps=469 q=-0.0 size=N/A time=00:14:18.48 bitrate=N/A speed=19.6x    frame=20840 fps=470 q=-0.0 size=N/A time=00:14:29.20 bitrate=N/A speed=19.6x    frame=21086 fps=470 q=-0.0 size=N/A time=00:14:39.46 bitrate=N/A speed=19.6x    frame=21350 fps=470 q=-0.0 size=N/A time=00:14:50.47 bitrate=N/A speed=19.6x    frame=21605 fps=471 q=-0.0 size=N/A time=00:15:01.10 bitrate=N/A speed=19.6x    frame=21879 fps=471 q=-0.0 size=N/A time=00:15:12.53 bitrate=N/A speed=19.7x    frame=22134 fps=471 q=-0.0 size=N/A time=00:15:23.17 bitrate=N/A speed=19.7x    frame=22413 fps=472 q=-0.0 size=N/A time=00:15:34.80 bitrate=N/A speed=19.7x    frame=22669 fps=472 q=-0.0 size=N/A time=00:15:45.48 bitrate=N/A speed=19.7x    frame=22920 fps=473 q=-0.0 size=N/A time=00:15:55.95 bitrate=N/A speed=19.7x    frame=23146 fps=472 q=-0.0 size=N/A time=00:16:05.38 bitrate=N/A speed=19.7x    frame=23369 fps=472 q=-0.0 size=N/A time=00:16:14.68 bitrate=N/A speed=19.7x    frame=23631 fps=472 q=-0.0 size=N/A time=00:16:25.60 bitrate=N/A speed=19.7x    frame=23882 fps=472 q=-0.0 size=N/A time=00:16:36.07 bitrate=N/A speed=19.7x    frame=24146 fps=473 q=-0.0 size=N/A time=00:16:47.08 bitrate=N/A speed=19.7x    frame=24397 fps=473 q=-0.0 size=N/A time=00:16:57.55 bitrate=N/A speed=19.7x    frame=24667 fps=473 q=-0.0 size=N/A time=00:17:08.81 bitrate=N/A speed=19.7x    frame=24896 fps=473 q=-0.0 size=N/A time=00:17:18.37 bitrate=N/A speed=19.7x    frame=25113 fps=473 q=-0.0 size=N/A time=00:17:27.42 bitrate=N/A speed=19.7x    frame=25361 fps=473 q=-0.0 size=N/A time=00:17:37.76 bitrate=N/A speed=19.7x    frame=25619 fps=473 q=-0.0 size=N/A time=00:17:48.52 bitrate=N/A speed=19.7x    frame=25894 fps=474 q=-0.0 size=N/A time=00:17:59.99 bitrate=N/A speed=19.7x    frame=26112 fps=473 q=-0.0 size=N/A time=00:18:09.08 bitrate=N/A speed=19.7x    frame=26265 fps=471 q=-0.0 size=N/A time=00:18:15.46 bitrate=N/A speed=19.7x    frame=26441 fps=470 q=-0.0 size=N/A time=00:18:22.81 bitrate=N/A speed=19.6x    frame=26689 fps=470 q=-0.0 size=N/A time=00:18:33.15 bitrate=N/A speed=19.6x    frame=26946 fps=471 q=-0.0 size=N/A time=00:18:43.87 bitrate=N/A speed=19.6x    frame=27213 fps=471 q=-0.0 size=N/A time=00:18:55.00 bitrate=N/A speed=19.6x    frame=27485 fps=472 q=-0.0 size=N/A time=00:19:06.35 bitrate=N/A speed=19.7x    frame=27737 fps=472 q=-0.0 size=N/A time=00:19:16.86 bitrate=N/A speed=19.7x    frame=27999 fps=472 q=-0.0 size=N/A time=00:19:27.79 bitrate=N/A speed=19.7x    frame=28248 fps=472 q=-0.0 size=N/A time=00:19:38.17 bitrate=N/A speed=19.7x    frame=28482 fps=472 q=-0.0 size=N/A time=00:19:47.93 bitrate=N/A speed=19.7x    frame=28733 fps=472 q=-0.0 size=N/A time=00:19:58.40 bitrate=N/A speed=19.7x    frame=29008 fps=473 q=-0.0 size=N/A time=00:20:09.87 bitrate=N/A speed=19.7x    frame=29248 fps=473 q=-0.0 size=N/A time=00:20:19.88 bitrate=N/A speed=19.7x    frame=29456 fps=472 q=-0.0 size=N/A time=00:20:28.56 bitrate=N/A speed=19.7x    frame=29711 fps=472 q=-0.0 size=N/A time=00:20:39.19 bitrate=N/A speed=19.7x    frame=29959 fps=472 q=-0.0 size=N/A time=00:20:49.53 bitrate=N/A speed=19.7x    frame=30196 fps=472 q=-0.0 size=N/A time=00:20:59.42 bitrate=N/A speed=19.7x    frame=30396 fps=471 q=-0.0 size=N/A time=00:21:07.76 bitrate=N/A speed=19.7x    frame=30646 fps=471 q=-0.0 size=N/A time=00:21:18.19 bitrate=N/A speed=19.7x    frame=30891 fps=471 q=-0.0 size=N/A time=00:21:28.41 bitrate=N/A speed=19.7x    frame=31125 fps=471 q=-0.0 size=N/A time=00:21:38.17 bitrate=N/A speed=19.7x    frame=31369 fps=471 q=-0.0 size=N/A time=00:21:48.34 bitrate=N/A speed=19.7x    frame=31599 fps=471 q=-0.0 size=N/A time=00:21:57.94 bitrate=N/A speed=19.7x    frame=31839 fps=471 q=-0.0 size=N/A time=00:22:07.95 bitrate=N/A speed=19.7x    frame=32102 fps=471 q=-0.0 size=N/A time=00:22:18.92 bitrate=N/A speed=19.7x    frame=32352 fps=472 q=-0.0 size=N/A time=00:22:29.34 bitrate=N/A speed=19.7x    frame=32605 fps=472 q=-0.0 size=N/A time=00:22:39.90 bitrate=N/A speed=19.7x    frame=32833 fps=471 q=-0.0 size=N/A time=00:22:49.40 bitrate=N/A speed=19.7x    frame=33076 fps=471 q=-0.0 size=N/A time=00:22:59.54 bitrate=N/A speed=19.7x    frame=33277 fps=471 q=-0.0 size=N/A time=00:23:07.92 bitrate=N/A speed=19.6x    frame=33434 fps=470 q=-0.0 size=N/A time=00:23:14.47 bitrate=N/A speed=19.6x    frame=33665 fps=469 q=-0.0 size=N/A time=00:23:24.11 bitrate=N/A speed=19.6x    frame=33850 fps=469 q=-0.0 size=N/A time=00:23:31.82 bitrate=N/A speed=19.5x    frame=34061 fps=468 q=-0.0 size=N/A time=00:23:40.62 bitrate=N/A speed=19.5x    frame=34273 fps=468 q=-0.0 size=N/A time=00:23:49.46 bitrate=N/A speed=19.5x    frame=34483 fps=467 q=-0.0 size=N/A time=00:23:58.22 bitrate=N/A speed=19.5x    frame=34691 fps=467 q=-0.0 size=N/A time=00:24:06.90 bitrate=N/A speed=19.5x    [Parsed_ssim_10 @ 000001fb6d89d000] SSIM Y:0.993419 (21.817084) U:0.994916 (22.937955) V:0.994932 (22.951899) All:0.993921 (22.161481)
[out#0/null @ 000001fb61b03fc0] video:14971KiB audio:272876KiB subtitle:0KiB other streams:0KiB global headers:0KiB muxing overhead: unknown
frame=34842 fps=467 q=-0.0 Lsize=N/A time=00:24:13.20 bitrate=N/A speed=19.5x    
